<svg xmlns="http://www.w3.org/2000/svg" xmlns:xlink="http://www.w3.org/1999/xlink" width="64" zoomAndPan="magnify" viewBox="0 0 48 38.249999" height="51" preserveAspectRatio="xMidYMid meet" version="1.0"><defs><clipPath id="f137aa9da0"><path d="M 0.902344 0 L 47.242188 0 L 47.242188 37.515625 L 0.902344 37.515625 Z M 0.902344 0 " clip-rule="nonzero"/></clipPath></defs><path fill="#03989e" d="M 17.75 1.84375 C 20.382812 3.421875 21.433594 7.894531 19.328125 15 C 17.226562 22.101562 16.171875 28.417969 23.277344 33.15625 C 29.855469 35.261719 36.960938 31.839844 39.328125 25.523438 C 39.589844 25.523438 39.066406 25.523438 37.75 25.523438 C 31.171875 25.261719 28.277344 22.101562 29.59375 15.523438 C 30.382812 13.417969 30.90625 11.050781 30.90625 8.683594 C 30.382812 3.15625 25.117188 0.789062 17.75 1.84375 Z M 17.75 1.84375 " fill-opacity="1" fill-rule="evenodd"/><path fill="#008037" d="M 38.011719 15.261719 C 37.484375 17.367188 37.484375 19.472656 38.277344 21.050781 C 38.539062 22.367188 39.328125 23.417969 40.117188 24.207031 C 40.644531 22.628906 40.644531 20.789062 40.117188 19.472656 C 39.855469 17.894531 39.066406 16.578125 38.011719 15.261719 Z M 38.011719 15.261719 " fill-opacity="1" fill-rule="evenodd"/><g clip-path="url(#f137aa9da0)"><path fill="#333632" d="M 34.855469 24.734375 C 35.117188 24.734375 35.382812 24.996094 35.117188 25.523438 C 35.117188 25.789062 34.855469 25.789062 34.589844 25.789062 C 31.960938 24.996094 30.117188 23.683594 29.328125 21.578125 C 28.539062 19.734375 28.539062 17.367188 29.328125 14.472656 L 29.328125 14.210938 C 31.171875 9.210938 30.644531 5.789062 28.277344 3.683594 C 25.910156 1.578125 21.699219 0.789062 15.644531 1.316406 C 16.699219 2.367188 17.488281 3.683594 18.277344 5.261719 C 18.804688 7.105469 18.804688 9.472656 18.539062 12.105469 L 18.277344 12.105469 C 17.226562 16.3125 15.644531 22.101562 17.226562 26.3125 C 18.277344 28.417969 19.59375 30.261719 21.699219 31.574219 C 23.804688 32.890625 26.171875 33.417969 28.277344 33.15625 C 30.644531 33.15625 33.011719 32.101562 34.855469 30.785156 C 36.433594 28.945312 38.011719 27.101562 39.066406 24.734375 C 37.75 23.683594 36.960938 22.367188 36.433594 20.789062 C 35.382812 18.417969 35.382812 15.789062 36.433594 13.417969 L 36.695312 12.628906 L 37.484375 13.15625 C 39.066406 14.472656 40.117188 16.3125 40.644531 18.15625 C 41.171875 20.261719 41.171875 22.367188 40.378906 24.472656 C 40.90625 24.734375 41.433594 24.996094 41.960938 25.261719 C 42.222656 25.523438 42.484375 25.789062 42.222656 26.050781 C 41.960938 26.578125 41.695312 26.578125 41.433594 26.3125 C 40.90625 26.050781 40.378906 25.789062 39.855469 25.523438 C 38.800781 27.890625 37.222656 29.734375 35.644531 31.574219 C 34.328125 32.628906 33.277344 33.679688 31.960938 34.46875 C 31.699219 34.46875 31.171875 34.734375 30.90625 34.996094 C 32.488281 34.734375 34.066406 34.207031 35.644531 33.417969 C 38.800781 31.839844 41.433594 29.472656 43.273438 26.839844 C 45.117188 23.945312 46.167969 20.789062 46.433594 17.105469 C 46.433594 16.839844 46.695312 16.578125 46.960938 16.578125 C 47.484375 16.578125 47.75 16.839844 47.484375 17.367188 C 47.484375 21.050781 46.167969 24.472656 44.066406 27.367188 C 42.222656 30.261719 39.589844 32.890625 36.171875 34.46875 C 33.277344 35.785156 30.117188 36.574219 26.960938 36.574219 C 24.59375 37.101562 21.960938 37.363281 19.066406 37.101562 C 14.59375 36.839844 10.382812 34.734375 7.226562 31.839844 C 4.066406 28.945312 1.699219 24.996094 0.910156 20.523438 C 0.910156 20 1.171875 19.734375 1.4375 19.734375 C 1.699219 19.734375 1.964844 20 1.964844 20.261719 C 3.015625 24.472656 5.121094 28.15625 8.015625 31.050781 C 11.171875 33.679688 14.855469 35.523438 19.328125 36.050781 C 20.644531 36.050781 21.699219 36.050781 23.015625 36.050781 C 20.382812 35.523438 17.75 34.46875 15.644531 32.890625 C 12.488281 30.785156 10.121094 27.890625 8.804688 24.734375 C 7.226562 21.3125 6.4375 17.894531 6.960938 14.210938 C 6.960938 13.683594 7.226562 13.417969 7.488281 13.683594 C 8.015625 13.683594 8.015625 13.945312 8.015625 14.210938 C 7.753906 17.628906 8.277344 21.050781 9.855469 24.207031 C 11.171875 27.101562 13.277344 29.734375 16.171875 31.839844 C 19.066406 33.945312 22.488281 34.996094 25.644531 35.261719 C 26.171875 35.261719 26.433594 35.261719 26.960938 35.261719 C 27.75 34.996094 28.539062 34.734375 29.328125 34.207031 C 29.066406 34.46875 28.804688 34.46875 28.539062 34.46875 C 25.910156 34.46875 23.277344 33.945312 21.171875 32.628906 C 18.804688 31.050781 17.226562 28.945312 16.171875 26.578125 C 14.332031 22.101562 15.910156 16.3125 17.226562 11.839844 C 17.75 9.472656 17.488281 7.367188 16.960938 5.527344 C 16.433594 3.945312 15.382812 2.367188 13.542969 1.316406 L 12.226562 0.527344 L 14.066406 0.261719 C 21.171875 -0.527344 26.171875 0.261719 29.066406 2.632812 C 31.699219 5.261719 32.488281 9.210938 30.644531 14.734375 C 29.855469 17.367188 29.59375 19.472656 30.382812 21.050781 C 31.171875 22.894531 32.488281 23.945312 34.855469 24.734375 Z M 39.328125 23.417969 C 39.855469 21.839844 39.855469 20.261719 39.589844 18.683594 C 39.066406 17.105469 38.277344 15.789062 37.222656 14.472656 C 36.695312 16.578125 36.695312 18.683594 37.484375 20.523438 C 38.011719 21.578125 38.539062 22.628906 39.328125 23.417969 Z M 39.328125 23.417969 " fill-opacity="1" fill-rule="nonzero"/></g><path fill="#000000" d="M 22.75 3.421875 C 23.539062 3.421875 24.066406 4.210938 24.066406 4.738281 C 24.066406 5.527344 23.539062 6.050781 22.75 6.050781 C 21.960938 6.050781 21.433594 5.527344 21.433594 4.738281 C 21.433594 4.210938 21.960938 3.421875 22.75 3.421875 Z M 22.75 3.421875 " fill-opacity="1" fill-rule="evenodd"/></svg>