<svg xmlns="http://www.w3.org/2000/svg" xmlns:xlink="http://www.w3.org/1999/xlink" xml:space="preserve" width="89.5831mm" height="18.7617mm" version="1.1" style="shape-rendering:geometricPrecision; text-rendering:geometricPrecision; image-rendering:optimizeQuality; fill-rule:evenodd; clip-rule:evenodd" viewBox="0 0 4093 857">
          <defs>
           <style type="text/css">
            
             .fil2 {fill:#E41D36}
             .fil3 {fill:#192F47}
             .fil4 {fill:#FEFEFE;fill-rule:nonzero}
             .fil1 {fill:#E41D36;fill-rule:nonzero}
             .fil0 {fill:#192F47;fill-rule:nonzero}
            
           </style>
          </defs>
          <g id="Layer_x0020_1">
           <metadata id="CorelCorpID_0Corel-Layer"/>
           <path class="fil0" d="M214 708c-11,-7 -23,-12 -36,-17 -12,-4 -23,-6 -32,-6 -6,0 -12,1 -15,4 -4,2 -6,6 -6,11 0,4 1,8 5,11 3,3 7,6 12,8 5,2 13,4 22,7 15,4 27,8 36,13 10,4 18,10 25,19 7,9 10,20 10,34 0,14 -4,26 -11,35 -8,10 -18,18 -30,23 -13,5 -28,7 -43,7 -18,0 -35,-3 -52,-9 -17,-6 -32,-14 -45,-25l21 -43c11,10 23,17 38,23 14,6 27,9 38,9 8,0 15,-1 20,-4 4,-3 7,-7 7,-13 0,-5 -2,-9 -6,-12 -3,-3 -8,-6 -13,-8 -5,-2 -13,-4 -22,-7 -14,-4 -26,-8 -36,-12 -9,-4 -17,-10 -24,-18 -6,-8 -10,-19 -10,-33 0,-13 4,-24 11,-34 7,-10 16,-17 29,-23 13,-5 27,-8 44,-8 15,0 30,2 45,7 15,4 27,10 39,17l-21 44zm162 138c-6,3 -13,6 -21,7 -8,2 -16,3 -24,3 -16,0 -28,-4 -38,-13 -10,-10 -15,-22 -15,-38l0 -70 -22 0 0 -35 22 0 0 -45 53 0 0 45 42 0 0 35 -42 0 0 61c0,12 4,17 14,17 6,0 12,-2 20,-5l11 38zm190 -154l0 162 -53 0 0 -26c-11,18 -28,28 -51,28 -18,0 -32,-5 -42,-17 -11,-11 -16,-26 -16,-45l0 -102 53 0 0 87c0,9 2,17 7,22 5,5 11,7 19,7 9,0 17,-3 22,-10 6,-6 8,-15 8,-26l0 -80 53 0zm212 -60l0 222 -53 0 0 -21c-6,8 -13,13 -21,17 -8,4 -17,6 -27,6 -15,0 -28,-3 -39,-10 -12,-7 -21,-17 -27,-30 -6,-13 -9,-27 -9,-44 0,-16 3,-30 9,-43 6,-12 15,-22 26,-28 11,-7 24,-11 39,-11 10,0 19,2 28,6 8,4 15,10 21,17l0 -81 53 0zm-88 182c10,0 19,-4 25,-11 7,-8 10,-17 10,-29 0,-12 -3,-22 -10,-29 -6,-8 -15,-11 -25,-11 -10,0 -19,3 -25,11 -7,7 -10,17 -10,29 0,12 3,21 10,29 6,7 15,11 25,11zm209 -124c26,0 46,8 61,24 14,15 21,37 21,64 0,4 0,7 -1,9l-112 0c3,9 7,16 14,21 6,5 14,8 23,8 7,0 14,-2 20,-5 7,-2 12,-6 18,-12l28 28c-9,9 -19,16 -31,21 -12,5 -25,8 -40,8 -17,0 -32,-4 -45,-10 -13,-7 -23,-17 -30,-29 -7,-12 -10,-27 -10,-43 0,-17 3,-31 10,-44 7,-13 17,-22 30,-29 12,-7 27,-11 44,-11zm30 69c0,-9 -3,-17 -8,-23 -6,-5 -13,-8 -22,-8 -8,0 -15,3 -21,8 -5,6 -9,13 -11,23l62 0zm193 -69c18,0 32,6 43,17 11,11 16,26 16,45l0 102 -53 0 0 -87c0,-9 -2,-16 -7,-21 -5,-6 -12,-8 -20,-8 -9,0 -16,3 -22,8 -6,6 -9,13 -10,22l0 86 -53 0 0 -162 53 0 0 27c6,-10 13,-17 22,-22 9,-4 20,-7 31,-7zm208 156c-6,3 -13,6 -21,7 -7,2 -15,3 -23,3 -16,0 -29,-4 -39,-13 -10,-10 -15,-22 -15,-38l0 -70 -22 0 0 -35 22 0 0 -45 53 0 0 45 42 0 0 35 -42 0 0 61c0,12 5,17 14,17 6,0 13,-2 21,-5l10 38z"/>
           <path class="fil0" d="M1583 854l-14 -37 -91 0 -14 37 -56 0 90 -210 56 0 88 210 -59 0zm-88 -79l58 0 -29 -75 -29 75zm270 -24c-7,-11 -18,-17 -31,-17 -10,0 -17,4 -23,11 -6,8 -9,17 -9,29 0,11 3,21 9,28 6,7 13,11 23,11 15,0 25,-6 31,-19l40 23c-7,12 -16,22 -29,29 -13,6 -28,10 -45,10 -16,0 -31,-4 -43,-10 -13,-7 -23,-17 -30,-29 -6,-12 -10,-27 -10,-43 0,-17 4,-31 11,-44 7,-13 16,-22 29,-29 13,-7 27,-11 44,-11 16,0 30,4 43,11 12,6 22,16 29,28l-39 22zm172 0c-8,-11 -18,-17 -32,-17 -10,0 -17,4 -23,11 -6,8 -9,17 -9,29 0,11 3,21 9,28 6,7 13,11 23,11 15,0 25,-6 32,-19l39 23c-7,12 -16,22 -29,29 -13,6 -28,10 -45,10 -16,0 -31,-4 -43,-10 -13,-7 -23,-17 -29,-29 -7,-12 -11,-27 -11,-43 0,-17 4,-31 11,-44 7,-13 16,-22 29,-29 13,-7 27,-11 44,-11 16,0 30,4 43,11 12,6 22,16 29,28l-38 22zm142 -61c17,0 33,4 46,11 13,7 24,16 31,29 7,12 11,27 11,43 0,16 -4,31 -11,43 -7,13 -18,23 -31,29 -13,7 -29,11 -46,11 -18,0 -33,-4 -47,-11 -13,-6 -23,-16 -31,-29 -7,-12 -11,-27 -11,-43 0,-16 4,-31 11,-43 8,-13 18,-22 31,-29 14,-7 29,-11 47,-11zm0 44c-11,0 -19,3 -26,11 -6,7 -9,17 -9,29 0,12 3,21 9,29 7,7 15,11 26,11 10,0 19,-4 25,-11 6,-8 9,-17 9,-29 0,-12 -3,-22 -9,-29 -7,-8 -15,-11 -25,-11zm339 -44c17,0 31,6 42,17 10,11 16,26 16,45l0 102 -54 0 0 -87c0,-9 -2,-16 -7,-21 -5,-6 -11,-8 -19,-8 -10,0 -17,3 -22,10 -6,7 -9,15 -9,26l0 80 -53 0 0 -87c0,-9 -2,-16 -7,-21 -5,-6 -11,-8 -19,-8 -10,0 -17,3 -23,10 -5,7 -8,15 -8,26l0 80 -53 0 0 -162 53 0 0 27c5,-9 13,-17 21,-21 9,-5 20,-8 31,-8 13,0 25,3 34,10 9,6 16,15 20,26 5,-12 13,-21 22,-27 10,-6 21,-9 35,-9zm317 0c18,0 32,6 42,17 11,11 16,26 16,45l0 102 -53 0 0 -87c0,-9 -2,-16 -7,-21 -5,-6 -12,-8 -20,-8 -9,0 -16,3 -22,10 -5,7 -8,15 -8,26l0 80 -53 0 0 -87c0,-9 -3,-16 -8,-21 -4,-6 -11,-8 -19,-8 -9,0 -17,3 -22,10 -6,7 -9,15 -9,26l0 80 -53 0 0 -162 53 0 0 27c6,-9 13,-17 22,-21 9,-5 19,-8 31,-8 13,0 24,3 34,10 9,6 16,15 20,26 5,-12 12,-21 22,-27 10,-6 21,-9 34,-9zm177 0c17,0 33,4 46,11 14,7 24,16 31,29 8,12 11,27 11,43 0,16 -3,31 -11,43 -7,13 -17,23 -31,29 -13,7 -29,11 -46,11 -18,0 -33,-4 -46,-11 -14,-6 -24,-16 -31,-29 -8,-12 -11,-27 -11,-43 0,-16 3,-31 11,-43 7,-13 17,-22 31,-29 13,-7 28,-11 46,-11zm0 44c-10,0 -19,3 -25,11 -7,7 -10,17 -10,29 0,12 3,21 10,29 6,7 15,11 25,11 10,0 19,-4 25,-11 7,-8 10,-17 10,-29 0,-12 -3,-22 -10,-29 -6,-8 -15,-11 -25,-11zm286 -102l0 222 -53 0 0 -21c-5,8 -12,13 -20,17 -8,4 -17,6 -28,6 -14,0 -28,-3 -39,-10 -11,-7 -20,-17 -26,-30 -7,-13 -10,-27 -10,-44 0,-16 3,-30 9,-43 7,-12 15,-22 26,-28 12,-7 25,-11 39,-11 11,0 20,2 28,6 8,4 15,10 21,18l0 -82 53 0zm-87 182c10,0 18,-4 25,-11 6,-8 9,-17 9,-29 0,-12 -3,-22 -9,-29 -7,-8 -15,-11 -25,-11 -11,0 -19,3 -26,11 -6,7 -9,17 -9,29 0,12 3,21 9,29 7,7 15,11 26,11zm210 -124c22,0 40,5 52,16 12,10 19,24 19,43l0 105 -52 0 0 -18c-11,13 -27,20 -49,20 -17,0 -31,-4 -40,-14 -10,-9 -15,-21 -15,-36 0,-16 5,-27 16,-36 10,-9 26,-13 46,-13l42 0 0 -2c0,-8 -3,-14 -8,-18 -6,-4 -13,-6 -23,-6 -7,0 -14,1 -23,3 -8,2 -17,5 -25,10l-15 -36c13,-6 26,-11 38,-13 12,-3 24,-5 37,-5zm-14 130c8,0 15,-2 21,-6 6,-4 10,-9 12,-15l0 -14 -32 0c-15,0 -22,6 -22,17 0,5 2,10 5,13 4,3 10,5 16,5zm234 26c-6,3 -13,6 -21,7 -8,2 -16,3 -23,3 -16,0 -29,-4 -39,-13 -10,-10 -15,-22 -15,-38l0 -70 -22 0 0 -35 22 0 0 -45 53 0 0 45 42 0 0 35 -42 0 0 61c0,12 5,17 14,17 6,0 13,-2 21,-5l10 38zm33 -154l53 0 0 162 -53 0 0 -162zm26 -74c8,0 15,3 20,8 5,5 8,12 8,20 0,8 -3,15 -8,21 -5,5 -12,8 -20,8 -8,0 -15,-3 -20,-8 -6,-6 -8,-13 -8,-21 0,-8 2,-15 8,-20 5,-5 12,-8 20,-8zm150 72c18,0 33,4 46,11 14,7 24,16 31,29 8,12 12,27 12,43 0,16 -4,31 -12,43 -7,13 -17,23 -31,29 -13,7 -28,11 -46,11 -17,0 -33,-4 -46,-11 -14,-6 -24,-16 -31,-29 -7,-12 -11,-27 -11,-43 0,-16 4,-31 11,-43 7,-13 17,-22 31,-29 13,-7 29,-11 46,-11zm0 44c-10,0 -19,3 -25,11 -6,7 -10,17 -10,29 0,12 4,21 10,29 6,7 15,11 25,11 11,0 19,-4 25,-11 7,-8 10,-17 10,-29 0,-12 -3,-22 -10,-29 -6,-8 -15,-11 -25,-11zm230 -44c18,0 32,6 43,17 10,11 16,26 16,45l0 102 -53 0 0 -87c0,-9 -3,-16 -8,-21 -5,-6 -11,-8 -20,-8 -8,0 -16,3 -21,8 -6,6 -9,13 -10,22l0 86 -54 0 0 -162 54 0 0 27c5,-10 13,-17 22,-22 9,-4 19,-7 31,-7z"/>
           <path class="fil1" d="M243 344l90 0 0 46c-20,9 -44,17 -88,17 -80,0 -121,-59 -121,-130 0,-71 40,-126 114,-126 45,0 77,19 100,48l84 -73c-39,-50 -101,-80 -181,-80 -131,0 -241,95 -241,231 0,136 110,232 243,232 101,0 155,-28 197,-62l0 -196 -197 0 0 93z"/>
           <path class="fil0" d="M1210 408l-72 0 0 -94 72 0c39,0 53,18 53,47 0,29 -13,47 -53,47zm-72 -262l64 0c33,0 44,16 44,41 0,26 -12,41 -46,41l-62 0 0 -82zm164 119c36,-13 63,-43 63,-97 0,-76 -58,-117 -148,-117l-196 0 0 452 190 0c113,0 173,-48 173,-131 0,-64 -40,-95 -82,-107z"/>
           <path class="fil0" d="M1620 269l-56 0 0 -116 56 0c41,0 63,21 63,58 0,38 -22,58 -63,58zm185 -58c0,-92 -64,-160 -179,-160l-183 0 0 452 121 0 0 -141 41 0 80 141 131 0 -93 -160c53,-25 82,-72 82,-132z"/>
           <polygon class="fil0" points="1876,503 1997,503 1997,51 1876,51 "/>
           <polygon class="fil0" points="2415,51 2054,51 2054,153 2174,153 2174,503 2295,503 2295,153 2415,153 "/>
           <path class="fil0" d="M2545 361l40 -96 41 96 -81 0zm41 -318l-220 460 119 0 22 -54 158 0 24 54 125 0 -220 -460c-2,-5 -6,-5 -8,0z"/>
           <path class="fil0" d="M3149 278l-284 -234c-7,-6 -9,-3 -9,1l0 458 114 0 0 -225 284 233c7,6 9,4 9,-1l0 -459 -114 0 0 227z"/>
           <polygon class="fil0" points="3609,51 3520,217 3431,51 3298,51 3458,328 3458,503 3579,503 3579,325 3736,51 "/>
           <path class="fil0" d="M3823 361l41 -96 41 96 -82 0zm50 -318c-2,-5 -6,-5 -8,0l-220 460 119 0 22 -54 158 0 24 54 125 0 -220 -460z"/>
           <path class="fil2" d="M971 255c-62,-59 -204,-177 -222,-188 -26,-16 -45,5 -59,17 -30,25 -63,53 -93,79 -31,27 -73,63 -107,90l29 1c1,51 -6,94 22,149 48,93 171,135 280,85 22,-10 51,-31 66,-49 55,-68 44,-116 47,-185l37 1z"/>
           <path class="fil3" d="M513 254l218 -182 209 182c16,1 38,3 53,-2 10,-3 16,-9 13,-22 -4,-18 -234,-210 -257,-224 -7,-4 -12,-6 -18,-6 -17,0 -31,14 -42,23 -31,26 -65,54 -96,81 -34,30 -81,71 -117,100 -6,5 -20,15 -22,23 -6,14 2,24 14,26l45 1z"/>
           <path class="fil4" d="M617 390l0 0c-35,-54 -23,-108 8,-148 16,-21 37,-38 60,-49 23,-11 47,-17 69,-15 31,4 58,23 68,63l0 0c2,15 1,29 -3,41 -4,12 -11,23 -20,29 -6,4 -12,7 -18,8 -11,3 -24,2 -35,-2 -11,-4 -21,-11 -27,-20 -4,-5 -6,-10 -8,-16 -2,-9 -1,-17 1,-23 3,-6 6,-10 11,-14 5,-3 10,-6 15,-7 8,-2 17,-2 24,1l15 6c-10,0 -23,-4 -34,-1 -13,3 -24,13 -24,28 -1,13 19,31 40,35 21,4 42,-4 49,-23 5,-14 5,-35 -12,-66l-1 -2c-15,-19 -39,-25 -62,-23 -32,5 -56,20 -75,36 -103,83 -25,291 196,168 -67,67 -179,69 -237,-6z"/>
          </g>
         </svg>