<svg width="143" height="40" viewBox="0 0 143 40" fill="none" xmlns="http://www.w3.org/2000/svg">
<g clip-path="url(#clip0_1140_2765)">
<path d="M6.22564 36.2421C6.22564 38.2526 4.7851 39.8842 2.75895 39.8842H0V32.5969H2.76208C4.78823 32.5969 6.22877 34.2316 6.22877 36.239M5.68387 36.239C5.68387 34.5103 4.49699 33.1168 2.76521 33.1168H0.557427V39.3643H2.76208C4.49386 39.3643 5.68074 37.9676 5.68074 36.2421" fill="black"/>
<path d="M14.28 39.8842H13.7226V33.408L11.0044 37.8862H10.9104L8.18906 33.408V39.8842H7.63477V32.5969H8.32685L10.9511 36.906L13.5786 32.5969H14.28V39.8842Z" fill="black"/>
<path d="M15.6895 36.2421C15.6895 34.1595 17.274 32.4841 19.5131 32.4841C20.8691 32.4841 22.0529 33.17 22.6635 34.2316L22.1688 34.5134C21.6865 33.6178 20.6656 33.0134 19.5131 33.0134C17.5809 33.0134 16.2469 34.4508 16.2469 36.2421C16.2469 38.0333 17.5809 39.4707 19.5131 39.4707C20.6781 39.4707 21.7084 38.8569 22.1907 37.9394L22.6855 38.2212C22.0873 39.2922 20.8911 40.0031 19.5131 40.0031C17.2772 40.0031 15.6895 38.3277 15.6895 36.2452" fill="black"/>
<path d="M44.4469 7.72262C43.7391 6.97417 42.8873 6.3823 41.9165 5.96266C40.9457 5.54303 39.881 5.33008 38.7567 5.33008C37.4164 5.33008 36.1825 5.66516 35.0896 6.3228C34.2128 6.85204 33.4674 7.49089 32.8693 8.22681L32.8129 6.09732C32.8129 5.62132 32.5875 5.33008 32.149 5.33008H30.8901C30.483 5.33008 30.2012 5.59626 30.2012 6.05974V24.0446C30.2012 24.3233 30.2513 24.5362 30.3546 24.6897C30.4768 24.8713 30.7085 24.9652 31.0467 24.9652H32.0426C32.3526 24.9652 32.5718 24.8713 32.6939 24.6897C32.7973 24.5331 32.8474 24.3233 32.8474 24.0414V13.2405C32.8474 12.5108 33.0071 11.8156 33.3234 11.1705C33.6397 10.5223 34.0624 9.9492 34.576 9.47006C35.0896 8.99406 35.6971 8.612 36.383 8.34268C37.7765 7.79465 39.358 7.80718 40.6576 8.35834C41.3184 8.64019 41.9071 9.03164 42.4082 9.52017C42.9092 10.0118 43.3132 10.5943 43.6045 11.2551C43.8957 11.9158 44.046 12.633 44.046 13.3908V24.0007C44.046 24.3013 44.0867 24.5206 44.1713 24.6709C44.3341 24.9621 44.7538 24.9621 44.8916 24.9621H45.8874C46.1411 24.9621 46.7329 24.865 46.7329 23.9631V13.8386C46.7329 12.6142 46.5294 11.4649 46.1223 10.4189C45.7152 9.37298 45.1515 8.46168 44.4437 7.71636" fill="black"/>
<path d="M6.56072 23.1645V24.1604C6.56072 24.6332 6.29767 24.7992 6.14109 24.8587C5.9344 24.9307 5.69013 24.9683 5.41142 24.9683H4.8352C4.1807 24.9683 3.55438 24.8932 2.97816 24.7491C2.77774 24.6959 2.58045 24.6301 2.38942 24.5487C2.02928 24.3921 1.69733 24.1792 1.40296 23.9098C0.952009 23.4965 0.601269 22.9359 0.363267 22.2376C0.119001 21.5517 0 20.6624 0 19.5945V4.47196C0 3.88322 0.347609 3.55127 0.958272 3.55127H1.7631C2.34558 3.55127 2.68379 3.88322 2.68379 4.47196L2.65247 19.0527V19.0903C2.69005 20.3711 2.86542 21.2198 3.20677 21.63C3.54498 22.0371 4.08362 22.2783 4.80389 22.3503H5.52416C5.7465 22.3503 5.95945 22.3816 6.14422 22.438C6.33525 22.4975 6.55759 22.6729 6.55759 23.1614" fill="black"/>
<path d="M24.6113 8.21115C23.7689 7.31865 22.7543 6.60777 21.5956 6.09732C20.4337 5.58687 19.1623 5.33008 17.8126 5.33008C16.4629 5.33008 15.1977 5.59 14.0484 6.10045C12.9022 6.6109 11.8938 7.32178 11.0546 8.21429C10.2153 9.10679 9.54514 10.1559 9.05974 11.3365C8.57748 12.5202 8.33008 13.8042 8.33008 15.1508C8.33008 16.4974 8.57434 17.7813 9.05974 18.9651C9.54201 20.1488 10.2122 21.1979 11.0546 22.0873C11.8938 22.9798 12.9022 23.6907 14.0484 24.2011C15.1977 24.7116 16.4629 24.9715 17.8126 24.9715C19.1623 24.9715 20.4337 24.7116 21.5956 24.2011C22.7543 23.6907 23.7689 22.9798 24.6113 22.0873C25.4506 21.1979 26.1208 20.1457 26.603 18.9651C27.0853 17.7813 27.3327 16.4974 27.3327 15.1508C27.3327 13.8042 27.0884 12.5234 26.603 11.3365C26.1208 10.1559 25.4506 9.10366 24.6113 8.21429M24.7836 15.1508C24.7836 16.1404 24.6051 17.0893 24.2574 17.9724C23.9067 18.8555 23.4182 19.629 22.8044 20.2804C22.1906 20.9317 21.4515 21.4578 20.606 21.8399C19.7667 22.2251 18.8398 22.4192 17.8533 22.4192C16.8668 22.4192 15.9399 22.2251 15.1006 21.8399C14.2582 21.4547 13.5192 20.9317 12.9054 20.2804C12.2916 19.629 11.803 18.8555 11.4523 17.9724C11.1016 17.0893 10.9262 16.1404 10.9262 15.1508C10.9262 14.1612 11.1047 13.2123 11.4523 12.3292C11.803 11.4492 12.2916 10.6726 12.9054 10.0212C13.5192 9.36985 14.2582 8.84687 15.1006 8.46168C15.943 8.0765 16.8668 7.88234 17.8533 7.88234C18.8398 7.88234 19.7636 8.0765 20.606 8.46168C21.4484 8.84687 22.1874 9.37298 22.8044 10.0212C23.4182 10.6695 23.9067 11.4461 24.2574 12.3292C24.6082 13.2123 24.7836 14.1612 24.7836 15.1508Z" fill="black"/>
<path d="M67.6772 3.55127H66.8755C66.2649 3.55127 65.9172 3.88948 65.9172 4.47822V8.25494C65.9047 8.23928 65.8891 8.22676 65.8797 8.2111C65.0404 7.31859 64.0226 6.60458 62.8671 6.09726C61.7052 5.58368 60.4307 5.33002 59.0872 5.33002C57.7437 5.33002 56.4661 5.58681 55.323 6.09726C54.1737 6.60458 53.1653 7.31859 52.3261 8.2111C51.4868 9.09734 50.8166 10.1496 50.3312 11.3333C49.8458 12.5139 49.6016 13.801 49.6016 15.1476C49.6016 16.4942 49.8458 17.7782 50.3312 18.9619C50.8166 20.1425 51.4868 21.1947 52.3261 22.0841C53.1653 22.9766 54.1737 23.6875 55.323 24.1979C56.4723 24.7115 57.7375 24.9652 59.0872 24.9652C60.4369 24.9652 61.7084 24.7084 62.8671 24.1979C64.0226 23.6906 65.0404 22.9766 65.8797 22.0841C65.8922 22.0684 65.9079 22.0559 65.9172 22.0403C66.7409 21.1634 67.3922 20.1269 67.8745 18.9619C68.1877 18.1853 68.4037 17.3742 68.5134 16.5286C68.5697 16.1027 68.6042 15.6612 68.6042 15.2322V4.47822C68.6042 3.88948 68.266 3.55127 67.6772 3.55127ZM65.9172 16.5975C65.8296 17.0704 65.698 17.5308 65.5258 17.9692C65.1719 18.846 64.6865 19.6258 64.0696 20.274C63.4527 20.9285 62.7199 21.4515 61.8743 21.8367C61.0351 22.2188 60.1081 22.4129 59.1185 22.4129C58.1289 22.4129 57.2051 22.2156 56.3658 21.8367C55.5203 21.4484 54.7844 20.9254 54.1706 20.274C53.5537 19.6258 53.0651 18.846 52.7175 17.9692C52.3699 17.0861 52.1883 16.1372 52.1883 15.1476C52.1883 14.158 52.3668 13.2091 52.7175 12.326C53.0651 11.4492 53.5568 10.6694 54.1706 10.0212C54.7875 9.36666 55.5234 8.84368 56.3658 8.45849C57.2051 8.07644 58.1321 7.87915 59.1185 7.87915C60.105 7.87915 61.0319 8.07644 61.8743 8.45849C62.7199 8.84681 63.4527 9.36666 64.0696 10.0212C64.6865 10.6694 65.1719 11.4429 65.5258 12.326C65.7012 12.7676 65.8296 13.2248 65.9172 13.6977C66.0112 14.1705 66.0519 14.6528 66.0519 15.1476C66.0519 15.6424 66.0081 16.1215 65.9172 16.5975Z" fill="black"/>
<path d="M107.587 7.72262C106.879 6.97417 106.027 6.3823 105.056 5.96266C104.085 5.54303 103.021 5.33008 101.896 5.33008C100.556 5.33008 99.3222 5.66516 98.2293 6.3228C97.3524 6.85204 96.6071 7.49089 96.0089 8.22681L95.9526 6.09732C95.9526 5.62132 95.7271 5.33008 95.2887 5.33008H94.0298C93.6227 5.33008 93.3408 5.59626 93.3408 6.05974V24.0446C93.3408 24.3233 93.3909 24.5362 93.4943 24.6897C93.6164 24.8713 93.8481 24.9652 94.1864 24.9652H95.1822C95.4922 24.9652 95.7114 24.8713 95.8336 24.6897C95.9369 24.5331 95.987 24.3233 95.987 24.0414V13.2405C95.987 12.5108 96.1467 11.8156 96.463 11.1705C96.7793 10.5223 97.2021 9.9492 97.7157 9.47006C98.2293 8.99406 98.8368 8.612 99.5226 8.34268C100.916 7.79465 102.498 7.80718 103.797 8.35834C104.458 8.64019 105.047 9.03164 105.548 9.52017C106.049 10.0118 106.453 10.5943 106.744 11.2551C107.035 11.9158 107.186 12.633 107.186 13.3908V24.0007C107.186 24.3013 107.226 24.5206 107.311 24.6709C107.474 24.9621 107.893 24.9621 108.031 24.9621H109.027C109.281 24.9621 109.873 24.865 109.873 23.9631V13.8386C109.873 12.6142 109.669 11.4649 109.262 10.4189C108.855 9.37298 108.291 8.46168 107.583 7.71636" fill="black"/>
<path d="M125.709 13.4065C125.349 13.3094 124.958 13.1873 124.548 13.0369C124.156 12.8929 123.787 12.7019 123.455 12.4639C123.129 12.2321 122.857 11.9597 122.647 11.6559C122.446 11.3678 122.349 11.0296 122.349 10.6225C122.349 9.76128 122.659 9.08799 123.298 8.56501C123.94 8.0389 124.77 7.76958 125.763 7.76958C126.567 7.76958 127.291 7.96061 127.917 8.33953C128.544 8.71846 129.054 9.22265 129.458 9.82391C129.524 9.92099 129.73 10.2435 129.793 10.3062C130.122 10.635 130.469 10.6507 130.873 10.3688L131.55 9.95544C131.807 9.79573 131.957 9.59531 131.991 9.3667C132.023 9.15375 131.979 8.93454 131.854 8.71533C131.193 7.54411 130.319 6.68291 129.279 6.08791C128.274 5.51482 127.065 5.29248 125.76 5.29248C123.984 5.29248 122.531 5.78414 121.441 6.75807C120.345 7.73826 119.788 9.03788 119.788 10.6256C119.788 11.3615 119.947 12.0348 120.264 12.6298C120.574 13.2123 120.99 13.7353 121.497 14.1768C121.998 14.6153 122.593 14.9911 123.26 15.3011C123.921 15.6049 124.616 15.8523 125.33 16.0308C125.85 16.156 126.386 16.3095 126.924 16.4942C127.451 16.6727 127.933 16.9107 128.352 17.1988C128.766 17.4807 129.113 17.8189 129.386 18.1947C129.646 18.5548 129.774 18.9776 129.774 19.4505C129.774 19.9515 129.643 20.3931 129.383 20.7657C129.113 21.1509 128.772 21.4704 128.362 21.7146C127.942 21.9651 127.491 22.153 127.015 22.272C126.536 22.391 126.076 22.4537 125.644 22.4537C125.34 22.4537 124.992 22.4004 124.616 22.294C124.231 22.1844 123.846 22.034 123.477 21.8399C123.11 21.652 122.784 21.4265 122.465 21.1165C122.221 20.8816 121.779 20.2772 121.613 19.9609C121.356 19.4724 120.971 19.2751 120.445 19.4724L119.75 19.8043C119.236 19.9954 119.023 20.4244 119.246 20.985C119.7 22.1437 120.874 23.3462 122.024 24.007C123.22 24.6928 124.288 24.9464 125.65 24.9746C126.542 24.9934 127.435 24.865 128.227 24.6239C129.023 24.3796 129.708 24.007 130.329 23.5403C130.952 23.0737 131.453 22.485 131.819 21.796C132.186 21.104 132.37 20.3023 132.37 19.4192C132.37 16.5631 130.128 14.5432 125.706 13.419" fill="black"/>
<path d="M137.935 19.0559C137.935 20.3524 138.11 21.2198 138.451 21.6332C138.796 22.0403 139.328 22.2814 140.052 22.3535H140.766C140.994 22.3535 141.201 22.3879 141.392 22.4412C141.577 22.5007 141.805 22.676 141.805 23.1646V24.1604C141.805 24.6333 141.539 24.7993 141.379 24.8588C141.173 24.9308 140.928 24.9684 140.65 24.9684H140.07C139.416 24.9684 138.796 24.8932 138.213 24.7491C137.618 24.5957 137.092 24.317 136.638 23.9099C136.19 23.4965 135.836 22.9359 135.598 22.2376C135.357 21.5518 135.238 20.6624 135.238 19.5945V4.47514C135.238 3.89266 135.592 3.55444 136.203 3.55444H136.967C137.578 3.55444 137.931 3.89266 137.931 4.47514V5.33006H141.032C141.671 5.33006 142.034 5.68393 142.034 6.2946V6.90526C142.034 7.51592 141.667 7.86979 141.032 7.86979H137.931V19.0559H137.935Z" fill="black"/>
<path d="M114.901 5.33008H114.134C113.524 5.33008 113.173 5.66516 113.173 6.25077V24.0446C113.173 24.6302 113.524 24.9652 114.134 24.9652H114.901C115.512 24.9652 115.863 24.6302 115.863 24.0446V6.25077C115.863 5.66516 115.512 5.33008 114.901 5.33008Z" fill="black"/>
<path d="M116.295 1.77562C116.295 2.75581 115.5 3.55124 114.52 3.55124C113.54 3.55124 112.744 2.75581 112.744 1.77562C112.744 0.795428 113.54 0 114.52 0C115.5 0 116.295 0.795428 116.295 1.77562Z" fill="black"/>
<path d="M81.4724 12.2099C81.1969 11.9281 80.7459 11.9281 80.4703 12.2099L72.6914 19.9888C73.1048 20.7592 73.6058 21.4575 74.1914 22.0839C75.037 22.9795 76.0422 23.6841 77.1884 24.1977C78.3377 24.705 79.6029 24.9681 80.9526 24.9681C82.3023 24.9681 83.5737 24.705 84.7356 24.1977C85.8911 23.6841 86.9058 22.9795 87.7482 22.0839C88.3369 21.4575 88.838 20.7592 89.2482 19.9888L81.4693 12.2099H81.4724ZM80.9714 22.0901C79.9881 22.0901 79.1958 21.2947 79.1958 20.3145C79.1958 19.3343 79.9912 18.5389 80.9714 18.5389C81.9516 18.5389 82.747 19.3343 82.747 20.3145C82.747 21.2947 81.9516 22.0901 80.9714 22.0901Z" fill="#F47E35"/>
<path d="M90.4723 15.1413C90.4723 15.8491 90.4034 16.5411 90.2719 17.205L81.4721 8.40523C81.1965 8.12965 80.7455 8.12965 80.47 8.40523L71.6701 17.205C71.5386 16.5411 71.4697 15.8491 71.4697 15.1413C71.4697 13.7979 71.714 12.5139 72.1963 11.3333C72.6848 10.1527 73.355 9.10045 74.1911 8.20794C75.0366 7.31856 76.0419 6.60769 77.188 6.09411C78.3373 5.58679 79.6025 5.32373 80.9522 5.32373C82.302 5.32373 83.5734 5.58679 84.7352 6.09411C85.8939 6.60769 86.9054 7.3123 87.751 8.20794C88.5902 9.10358 89.2573 10.1527 89.7458 11.3333C90.2281 12.5139 90.4723 13.7979 90.4723 15.1413Z" fill="#F47E35"/>
</g>
<defs>
<clipPath id="clip0_1140_2765">
<rect width="142.037" height="40" fill="black"/>
</clipPath>
</defs>
</svg>