<?xml version="1.0" encoding="utf-8"?>
<svg xmlns="http://www.w3.org/2000/svg" width="13" height="14" viewBox="0 0 13 14" fill="none">
<path d="M10.2157 8.75638C10.1012 8.62944 9.9615 8.52723 9.80539 8.45615C9.64928 8.38506 9.48008 8.34663 9.30833 8.34321C9.13542 8.34752 8.96513 8.38601 8.80743 8.45645C8.64973 8.52689 8.5078 8.62787 8.38997 8.75342L7.54156 9.59165C7.47161 9.55399 7.40166 9.51931 7.3347 9.48463C7.23477 9.43707 7.14684 9.3915 7.06889 9.34394C6.2278 8.80199 5.48151 8.12763 4.85943 7.34741C4.57094 7.00064 4.32722 6.61951 4.13392 6.21288C4.35377 6.01472 4.55863 5.80567 4.75649 5.60552L4.98234 5.37962C5.11504 5.26494 5.22141 5.12341 5.2943 4.96454C5.3672 4.80567 5.40491 4.63316 5.40491 4.45863C5.40491 4.28409 5.3672 4.11158 5.2943 3.95272C5.22141 3.79385 5.11504 3.65232 4.98234 3.53764L4.24885 2.81036C4.16591 2.72812 4.07997 2.64291 3.99902 2.5577C3.83814 2.39223 3.66825 2.22181 3.49437 2.06228C3.37813 1.94116 3.23876 1.84417 3.08435 1.77697C2.92995 1.70978 2.7636 1.67373 2.595 1.6709C2.2506 1.67772 1.92264 1.81825 1.68163 2.06228L1.67663 2.06723L0.763273 2.98078C0.424597 3.31032 0.217653 3.75026 0.180677 4.21932C0.149584 4.89482 0.266871 5.56896 0.524433 6.19507C1.00531 7.43721 1.70054 8.58688 2.57901 9.59264C3.73051 10.9676 5.1653 12.0825 6.78709 12.8624C7.52358 13.2396 8.32552 13.475 9.15044 13.556C9.2064 13.556 9.26636 13.561 9.31932 13.561C9.61017 13.5678 9.89909 13.5124 10.1664 13.3985C10.4337 13.2847 10.6731 13.115 10.8683 12.901C10.8683 12.8961 10.8762 12.8931 10.8792 12.8882C11.0267 12.7192 11.1835 12.5585 11.3489 12.4066C11.4648 12.2976 11.5827 12.1827 11.6977 12.0638C11.9494 11.8212 12.0951 11.4903 12.1034 11.1423C12.0999 10.9703 12.0615 10.8007 11.9904 10.6437C11.9194 10.4867 11.8171 10.3456 11.6897 10.2288L10.2157 8.75638ZM11.177 11.5595C11.0771 11.6714 10.9652 11.7725 10.8493 11.8844C10.6671 12.0526 10.494 12.2303 10.3306 12.4165C10.2036 12.5557 10.0475 12.6657 9.87316 12.7388C9.69882 12.8118 9.51048 12.8463 9.32132 12.8396C9.28135 12.8396 9.23838 12.8396 9.19741 12.8396C8.46445 12.7653 7.75236 12.5538 7.09887 12.2164C5.57208 11.4817 4.22093 10.4325 3.13562 9.13883C2.31096 8.19171 1.65839 7.10985 1.20696 5.94141C0.982011 5.41527 0.879539 4.84562 0.90717 4.27481C0.928066 3.97433 1.06009 3.69208 1.27791 3.48215L2.19328 2.57455C2.29991 2.46227 2.44574 2.39458 2.60099 2.38529C2.75112 2.39415 2.89176 2.46104 2.99272 2.57157L3.00072 2.57949C3.1646 2.73109 3.3205 2.88863 3.48438 3.05608C3.56732 3.1413 3.65326 3.22651 3.7392 3.3147L4.47269 4.04098C4.53872 4.08806 4.59251 4.15005 4.62961 4.2218C4.6667 4.29356 4.68605 4.37303 4.68605 4.45367C4.68605 4.53431 4.6667 4.61378 4.62961 4.68553C4.59251 4.75729 4.53872 4.81928 4.47269 4.86636C4.39475 4.94364 4.3198 5.02092 4.24185 5.09523C4.01601 5.32411 3.80116 5.53715 3.56732 5.74522C3.56233 5.75018 3.55633 5.75315 3.55433 5.75811C3.47158 5.83264 3.41381 5.93051 3.3888 6.03856C3.36379 6.14661 3.37274 6.25964 3.41443 6.3625L3.42242 6.3863C3.64329 6.89224 3.93533 7.36459 4.28982 7.78931C4.96014 8.63125 5.76569 9.35802 6.67416 9.94044C6.78125 10.0055 6.89166 10.065 7.00493 10.1188C7.10486 10.1663 7.1928 10.2119 7.27075 10.2595L7.30273 10.2783C7.38476 10.3211 7.47588 10.3438 7.56854 10.3447C7.64542 10.3428 7.72114 10.3256 7.79118 10.2941C7.86122 10.2626 7.92416 10.2175 7.97626 10.1614L8.89462 9.2508C8.99903 9.13536 9.14439 9.06438 9.30034 9.05265C9.37505 9.05766 9.44793 9.0778 9.51446 9.11189C9.58098 9.14598 9.63974 9.19327 9.68707 9.2508L9.69207 9.25576L11.172 10.7232C11.2363 10.7723 11.2884 10.8355 11.3242 10.9077C11.36 10.9799 11.3786 11.0593 11.3786 11.1398C11.3786 11.2203 11.36 11.2997 11.3242 11.372C11.2884 11.4442 11.2363 11.5073 11.172 11.5565L11.177 11.5595Z" fill="white"/>
<path d="M7.03697 3.94272C7.7389 4.06347 8.38604 4.39639 8.88979 4.89588C9.39355 5.39537 9.72931 6.03703 9.85109 6.73302C9.86551 6.8164 9.90926 6.892 9.97458 6.94642C10.0399 7.00084 10.1225 7.03055 10.2078 7.03027C10.2286 7.02995 10.2493 7.02832 10.2698 7.02534C10.3171 7.01777 10.3623 7.001 10.403 6.97599C10.4437 6.95099 10.479 6.91825 10.5069 6.87965C10.5348 6.84106 10.5547 6.79736 10.5654 6.75111C10.5762 6.70485 10.5776 6.65696 10.5696 6.61016C10.4226 5.76794 10.0165 4.99141 9.40699 4.38702C8.79745 3.78263 8.01429 3.37997 7.16488 3.23425C7.06962 3.21878 6.97206 3.2414 6.89357 3.29711C6.81509 3.35283 6.7621 3.43713 6.74618 3.53153C6.73757 3.57788 6.73831 3.62547 6.74841 3.67153C6.75851 3.7176 6.77774 3.76121 6.80498 3.79984C6.83222 3.83847 6.86695 3.87133 6.90712 3.89654C6.94729 3.92175 6.99211 3.93879 7.03899 3.94668L7.03697 3.94272Z" fill="white"/>
<path d="M12.8681 6.50868C12.6261 5.12164 11.9574 3.84277 10.9535 2.84743C9.94964 1.85209 8.65982 1.18901 7.2609 0.949132C7.21398 0.941455 7.166 0.943004 7.1197 0.953713C7.07339 0.964421 7.02965 0.984078 6.991 1.01154C6.95235 1.03901 6.91955 1.07375 6.89445 1.11379C6.86934 1.15383 6.85242 1.19837 6.84467 1.24489C6.83693 1.2914 6.83851 1.33897 6.84931 1.38489C6.86011 1.4308 6.87992 1.47417 6.90762 1.51249C6.93532 1.55081 6.97035 1.58335 7.01073 1.60824C7.05111 1.63313 7.09605 1.6499 7.14296 1.65757C8.39319 1.87159 9.54597 2.464 10.4431 3.3535C11.3402 4.24301 11.9377 5.38599 12.1536 6.6256C12.168 6.70897 12.2117 6.78458 12.277 6.839C12.3424 6.89342 12.425 6.92313 12.5103 6.92285C12.5311 6.92256 12.5518 6.92091 12.5723 6.91791C12.6195 6.91119 12.6648 6.89513 12.7056 6.8707C12.7464 6.84628 12.7818 6.81399 12.8098 6.77573C12.8377 6.73747 12.8576 6.69403 12.8684 6.64799C12.8791 6.60194 12.8803 6.55424 12.8721 6.5077L12.8681 6.50868Z" fill="white"/>
</svg>